HIERARCHY
ROOT Hips
{
	OFFSET 0.000000 71.427986 0.000000
	CHANNELS 6 Xposition Yposition Zposition Xrotation Yrotation Zrotation
	JOINT Pelvis
	{
		OFFSET 0.000000 0.000000 0.000000
		CHANNELS 3 Xrotation Yrotation Zrotation
		JOINT LeftUpLeg
		{
			OFFSET 6.797100 -2.508499 -1.318700
			CHANNELS 3 Xrotation Yrotation Zrotation
			JOINT LeftLeg
			{
				OFFSET 0.069008 -29.241863 0.690200
				CHANNELS 3 Xrotation Yrotation Zrotation
				JOINT LeftFoot
				{
					OFFSET -0.069008 -29.568123 -0.266800
					CHANNELS 3 Xrotation Yrotation Zrotation
					JOINT LeftToeBase
					{
						OFFSET 3.145500 -8.631000 16.059900
						CHANNELS 3 Xrotation Yrotation Zrotation
						End Site
						{
							OFFSET 0.000000 18.501587 0.000000
						}
					}
				}
			}
			JOINT Left_ShortSleeve
			{
				OFFSET 0.265923 -10.480953 1.153800
				CHANNELS 3 Xrotation Yrotation Zrotation
				End Site
				{
					OFFSET 1.725763 19.823879 0.000000
				}
			}
		}
		JOINT RightUpLeg
		{
			OFFSET -6.797100 -2.508499 -1.318700
			CHANNELS 3 Xrotation Yrotation Zrotation
			JOINT RightLeg
			{
				OFFSET -0.082453 -29.241932 0.688000
				CHANNELS 3 Xrotation Yrotation Zrotation
				JOINT RightFoot
				{
					OFFSET 0.082453 -29.568058 -0.264600
					CHANNELS 3 Xrotation Yrotation Zrotation
					JOINT RightToeBase
					{
						OFFSET -3.115300 -8.682800 16.113400
						CHANNELS 3 Xrotation Yrotation Zrotation
						End Site
						{
							OFFSET 0.000000 18.567114 0.000000
						}
					}
				}
			}
			JOINT Right_ShortSleeve
			{
				OFFSET -0.265923 -10.480953 1.153800
				CHANNELS 3 Xrotation Yrotation Zrotation
				End Site
				{
					OFFSET -1.725766 19.823910 0.000000
				}
			}
		}
	}
	JOINT Spine
	{
		OFFSET 0.000000 13.368103 0.470500
		CHANNELS 3 Xrotation Yrotation Zrotation
		JOINT Spine1
		{
			OFFSET 0.147000 13.837402 0.538800
			CHANNELS 3 Xrotation Yrotation Zrotation
			JOINT Spine2
			{
				OFFSET 0.168000 16.242897 -1.435500
				CHANNELS 3 Xrotation Yrotation Zrotation
				JOINT Neck
				{
					OFFSET 0.217200 18.631500 -1.679100
					CHANNELS 3 Xrotation Yrotation Zrotation
					JOINT Head
					{
						OFFSET 0.000000 6.599396 1.385900
						CHANNELS 3 Xrotation Yrotation Zrotation
						JOINT Hat
						{
							OFFSET -0.532200 27.220596 -10.096100
							CHANNELS 3 Xrotation Yrotation Zrotation
							End Site
							{
								OFFSET 0.000000 22.029861 0.000000
							}
						}
						JOINT HairD
						{
							OFFSET -10.777400 17.437393 -1.325900
							CHANNELS 3 Xrotation Yrotation Zrotation
							JOINT HairD1
							{
								OFFSET -3.290299 -11.051193 1.062200
								CHANNELS 3 Xrotation Yrotation Zrotation
								End Site
								{
									OFFSET 0.000000 11.579437 0.000000
								}
							}
						}
						JOINT HairB
						{
							OFFSET -10.777400 17.437393 1.467900
							CHANNELS 3 Xrotation Yrotation Zrotation
							JOINT HairB1
							{
								OFFSET -1.561200 -12.956299 3.590200
								CHANNELS 3 Xrotation Yrotation Zrotation
								End Site
								{
									OFFSET 0.000000 13.534866 0.000000
								}
							}
						}
						JOINT HairA
						{
							OFFSET 9.713100 17.437393 1.467900
							CHANNELS 3 Xrotation Yrotation Zrotation
							JOINT HairA1
							{
								OFFSET 1.561200 -12.956299 3.590200
								CHANNELS 3 Xrotation Yrotation Zrotation
								End Site
								{
									OFFSET 0.000000 13.534866 0.000000
								}
							}
						}
						JOINT HairC
						{
							OFFSET 9.713100 17.437393 -1.325900
							CHANNELS 3 Xrotation Yrotation Zrotation
							JOINT HairC1
							{
								OFFSET 3.290300 -11.051193 1.062200
								CHANNELS 3 Xrotation Yrotation Zrotation
								End Site
								{
									OFFSET 0.000000 11.579437 0.000000
								}
							}
						}
					}
				}
				JOINT LeftShoulder
				{
					OFFSET 5.101800 15.108002 -2.763700
					CHANNELS 3 Xrotation Yrotation Zrotation
					JOINT LeftArm
					{
						OFFSET 9.825497 2.506317 -1.597400
						CHANNELS 3 Xrotation Yrotation Zrotation
						JOINT LeftForeArm
						{
							OFFSET 21.966244 0.000000 0.000000
							CHANNELS 3 Xrotation Yrotation Zrotation
							JOINT LeftHand
							{
								OFFSET 33.879036 0.000000 0.000000
								CHANNELS 3 Xrotation Yrotation Zrotation
								JOINT LeftHandThumb1
								{
									OFFSET 6.715286 -2.359680 3.363841
									CHANNELS 3 Xrotation Yrotation Zrotation
									JOINT LeftHandThumb2
									{
										OFFSET 2.507072 -1.447464 1.447461
										CHANNELS 3 Xrotation Yrotation Zrotation
										JOINT LeftHandThumb3
										{
											OFFSET 2.898338 -1.673355 1.673357
											CHANNELS 3 Xrotation Yrotation Zrotation
											End Site
											{
												OFFSET -0.295959 3.727692 -0.131651
											}
										}
									}
								}
								JOINT LeftHandIndex1
								{
									OFFSET 14.190811 -0.254547 3.840278
									CHANNELS 3 Xrotation Yrotation Zrotation
									JOINT LeftHandIndex2
									{
										OFFSET 3.551727 0.000000 -0.000000
										CHANNELS 3 Xrotation Yrotation Zrotation
										JOINT LeftHandIndex3
										{
											OFFSET 2.894196 0.000000 0.000000
											CHANNELS 3 Xrotation Yrotation Zrotation
											End Site
											{
												OFFSET -1.000603 2.690872 0.366626
											}
										}
									}
								}
								JOINT LeftHandMiddle1
								{
									OFFSET 13.776489 0.000000 0.000000
									CHANNELS 3 Xrotation Yrotation Zrotation
									JOINT LeftHandMiddle2
									{
										OFFSET 3.438232 0.000000 0.000000
										CHANNELS 3 Xrotation Yrotation Zrotation
										JOINT LeftHandMiddle3
										{
											OFFSET 3.691551 0.000000 0.000000
											CHANNELS 3 Xrotation Yrotation Zrotation
											End Site
											{
												OFFSET -1.082298 3.499527 0.457670
											}
										}
									}
								}
								JOINT LeftHandRing1
								{
									OFFSET 13.966164 -0.268127 -3.067488
									CHANNELS 3 Xrotation Yrotation Zrotation
									JOINT LeftHandRing2
									{
										OFFSET 3.162567 0.000000 0.000000
										CHANNELS 3 Xrotation Yrotation Zrotation
										JOINT LeftHandRing3
										{
											OFFSET 3.324348 0.000000 0.000000
											CHANNELS 3 Xrotation Yrotation Zrotation
											End Site
											{
												OFFSET -0.861900 3.184998 0.405154
											}
										}
									}
								}
								JOINT LeftHandPinky1
								{
									OFFSET 13.131393 -0.168503 -5.746925
									CHANNELS 3 Xrotation Yrotation Zrotation
									JOINT LeftHandPinky2
									{
										OFFSET 2.849182 0.000000 0.000000
										CHANNELS 3 Xrotation Yrotation Zrotation
										JOINT LeftHandPinky3
										{
											OFFSET 2.805038 0.000000 0.000000
											CHANNELS 3 Xrotation Yrotation Zrotation
											End Site
											{
												OFFSET -0.882500 2.642609 0.325652
											}
										}
									}
								}
							}
							JOINT Left_Sleeve
							{
								OFFSET 6.592125 -0.646545 0.805568
								CHANNELS 3 Xrotation Yrotation Zrotation
								End Site
								{
									OFFSET -0.000179 20.275787 -0.000000
								}
							}
						}
					}
				}
				JOINT RightShoulder
				{
					OFFSET -5.731700 15.108002 -2.763700
					CHANNELS 3 Xrotation Yrotation Zrotation
					JOINT RightArm
					{
						OFFSET -9.825497 2.506317 -1.597400
						CHANNELS 3 Xrotation Yrotation Zrotation
						JOINT RightForeArm
						{
							OFFSET -21.966242 0.000000 0.000000
							CHANNELS 3 Xrotation Yrotation Zrotation
							JOINT RightHand
							{
								OFFSET -33.879032 0.000000 0.000000
								CHANNELS 3 Xrotation Yrotation Zrotation
								JOINT RightHandThumb1
								{
									OFFSET -6.715286 -2.359680 3.363841
									CHANNELS 3 Xrotation Yrotation Zrotation
									JOINT RightHandThumb2
									{
										OFFSET -2.507072 -1.447464 1.447461
										CHANNELS 3 Xrotation Yrotation Zrotation
										JOINT RightHandThumb3
										{
											OFFSET -2.898338 -1.673355 1.673357
											CHANNELS 3 Xrotation Yrotation Zrotation
											End Site
											{
												OFFSET 0.295959 3.727692 -0.131651
											}
										}
									}
								}
								JOINT RightHandIndex1
								{
									OFFSET -14.190811 -0.254547 3.840278
									CHANNELS 3 Xrotation Yrotation Zrotation
									JOINT RightHandIndex2
									{
										OFFSET -3.551727 0.000000 -0.000000
										CHANNELS 3 Xrotation Yrotation Zrotation
										JOINT RightHandIndex3
										{
											OFFSET -2.894196 0.000000 0.000000
											CHANNELS 3 Xrotation Yrotation Zrotation
											End Site
											{
												OFFSET 1.000603 2.690872 0.366626
											}
										}
									}
								}
								JOINT RightHandMiddle1
								{
									OFFSET -13.776489 0.000000 0.000000
									CHANNELS 3 Xrotation Yrotation Zrotation
									JOINT RightHandMiddle2
									{
										OFFSET -3.438232 0.000000 0.000000
										CHANNELS 3 Xrotation Yrotation Zrotation
										JOINT RightHandMiddle3
										{
											OFFSET -3.691551 0.000000 0.000000
											CHANNELS 3 Xrotation Yrotation Zrotation
											End Site
											{
												OFFSET 1.082298 3.499527 0.457670
											}
										}
									}
								}
								JOINT RightHandRing1
								{
									OFFSET -13.966164 -0.268127 -3.067488
									CHANNELS 3 Xrotation Yrotation Zrotation
									JOINT RightHandRing2
									{
										OFFSET -3.162567 0.000000 0.000000
										CHANNELS 3 Xrotation Yrotation Zrotation
										JOINT RightHandRing3
										{
											OFFSET -3.324348 0.000000 0.000000
											CHANNELS 3 Xrotation Yrotation Zrotation
											End Site
											{
												OFFSET 0.861900 3.184998 0.405154
											}
										}
									}
								}
								JOINT RightHandPinky1
								{
									OFFSET -13.131393 -0.168503 -5.746925
									CHANNELS 3 Xrotation Yrotation Zrotation
									JOINT RightHandPinky2
									{
										OFFSET -2.849182 0.000000 0.000000
										CHANNELS 3 Xrotation Yrotation Zrotation
										JOINT RightHandPinky3
										{
											OFFSET -2.805038 0.000000 0.000000
											CHANNELS 3 Xrotation Yrotation Zrotation
											End Site
											{
												OFFSET 0.882500 2.642609 0.325652
											}
										}
									}
								}
							}
							JOINT Right_Sleeve
							{
								OFFSET -6.592125 -0.646545 0.805568
								CHANNELS 3 Xrotation Yrotation Zrotation
								End Site
								{
									OFFSET 0.000179 20.275787 -0.000000
								}
							}
						}
					}
				}
				JOINT Bind_Right_JacketString
				{
					OFFSET -3.534800 11.969597 7.200700
					CHANNELS 3 Xrotation Yrotation Zrotation
					JOINT Bind_Right_JacketString1
					{
						OFFSET -0.319900 -6.102600 2.794100
						CHANNELS 3 Xrotation Yrotation Zrotation
						End Site
						{
							OFFSET 0.000000 6.719452 0.000000
						}
					}
				}
				JOINT Bind_Left_JacketString
				{
					OFFSET 2.904800 11.969597 7.200700
					CHANNELS 3 Xrotation Yrotation Zrotation
					JOINT Bind_Left_JacketString1
					{
						OFFSET 0.364800 -5.904503 3.186800
						CHANNELS 3 Xrotation Yrotation Zrotation
						End Site
						{
							OFFSET 0.000000 6.719513 0.000000
						}
					}
				}
				JOINT HairE
				{
					OFFSET 5.915200 17.612701 -11.592200
					CHANNELS 3 Xrotation Yrotation Zrotation
					JOINT HairE1
					{
						OFFSET 0.289200 -7.171898 -1.284500
						CHANNELS 3 Xrotation Yrotation Zrotation
						End Site
						{
							OFFSET 0.000000 7.291756 0.000000
						}
					}
				}
				JOINT HairF
				{
					OFFSET -0.864800 17.612701 -11.592200
					CHANNELS 3 Xrotation Yrotation Zrotation
					JOINT HairF1
					{
						OFFSET 0.000000 -14.087097 -2.127501
						CHANNELS 3 Xrotation Yrotation Zrotation
						End Site
						{
							OFFSET 0.000000 14.246841 0.000000
						}
					}
				}
				JOINT HairG
				{
					OFFSET -8.087700 17.612701 -11.592200
					CHANNELS 3 Xrotation Yrotation Zrotation
					JOINT HairG1
					{
						OFFSET -0.293600 -6.081398 -0.910100
						CHANNELS 3 Xrotation Yrotation Zrotation
						End Site
						{
							OFFSET 0.000000 6.156120 0.000000
						}
					}
				}
			}
		}
	}
	JOINT Pouch
	{
		OFFSET 0.000000 4.394501 10.847300
		CHANNELS 3 Xrotation Yrotation Zrotation
		End Site
		{
			OFFSET 0.000000 21.880577 0.000000
		}
	}
	JOINT Bag
	{
		OFFSET -13.229000 4.813004 -0.593300
		CHANNELS 3 Xrotation Yrotation Zrotation
		End Site
		{
			OFFSET 0.000000 21.880577 0.000000
		}
	}
	JOINT OccupyGuyFacialAnim_Joint
	{
		OFFSET 1.000000 -70.206398 -1.655000
		CHANNELS 3 Xrotation Yrotation Zrotation
		End Site
		{
			OFFSET 0.000000 21.880577 0.000000
		}
	}
}
MOTION
Frames: 4
Frame Time: 0.033333
-8.370878 64.466354 0.973130 -10.500151 -62.458713 -9.293456 -0.000000 0.000002 0.000000 -33.910380 41.072086 45.595222 17.575021 -14.292736 2.183990 7.688978 0.237465 -20.229912 -0.000000 0.000000 0.000000 0.000001 0.000000 -0.000001 -4.851182 -26.296029 -27.547403 20.946889 6.593755 -6.934691 -10.844218 -7.418806 28.546023 0.000000 -0.000000 -0.000000 0.000000 0.000000 -0.000002 -3.031765 -1.071798 0.483164 -5.197578 -0.256040 0.657521 -5.195060 -0.300710 0.649230 -7.437795 -0.456900 -3.313846 -17.480773 -5.577162 3.589416 -0.000003 0.000001 0.000001 -0.000003 0.000001 0.000001 -0.000003 0.000001 0.000000 -0.000003 0.000001 -0.000000 -0.000001 0.000000 -0.000001 -0.000003 0.000001 -0.000000 -0.000001 0.000000 -0.000001 -0.000003 0.000001 0.000001 -0.000003 0.000001 0.000001 2.152691 15.114826 -19.284127 -46.565002 21.004874 -36.638019 -183.270464 -155.427307 -174.785524 2.447693 3.001557 -3.848257 4.766485 -0.870673 -14.442466 15.732326 12.674839 8.828582 -0.000000 0.000001 -0.000001 -3.610953 -7.817588 -81.262661 0.005170 -4.388533 -67.459081 -0.000000 -0.000000 -0.000000 -5.483669 2.419554 -86.651031 -0.068363 -4.897283 -76.605503 -0.000000 0.000001 -0.000001 -4.480815 3.914146 -90.412519 -1.097244 -0.675671 -62.310723 0.000000 -0.000001 -0.000001 -8.868639 8.263651 -85.753879 -0.047920 -0.066883 -74.105647 -0.000001 -0.000003 0.000001 0.000000 -0.000001 0.000000 1.242668 -16.103303 13.502263 -14.098511 -26.490124 42.049001 -36.919317 5.276669 7.993875 1.334839 16.768844 -9.595476 24.918335 -21.323378 30.343047 9.041925 8.262090 -18.001805 0.000000 0.000000 0.000001 -0.070698 -3.035229 61.424205 0.006471 4.395157 66.609193 -0.000000 0.000001 0.000000 -1.235393 -0.119474 68.274270 -0.077303 4.902842 84.501891 -0.000003 -0.000004 -0.000001 0.883150 -4.613434 79.192943 -0.717758 1.136484 73.255780 -0.000001 0.000000 0.000001 -3.944541 0.099984 86.764781 -0.029800 0.060128 54.415144 0.000001 -0.000000 0.000004 0.000001 0.000001 0.000002 0.000000 0.000001 0.000001 -0.000001 -0.000000 -0.000001 0.000000 0.000001 0.000001 0.000000 0.000001 0.000001 0.000000 0.000001 0.000001 -0.000001 -0.000000 -0.000000 0.000000 0.000001 0.000001 0.000000 0.000001 0.000001 0.000000 0.000001 0.000001 -0.000001 -0.000000 -0.000000 -0.000000 0.000002 0.000000 -0.000000 0.000002 0.000000 -0.000000 0.000002 0.000000 
-8.308245 64.489655 0.989656 -10.601043 -62.585734 -9.391074 -0.000000 -0.000001 -0.000000 -33.805147 41.099994 45.501805 17.586224 -14.134782 2.237986 7.668450 0.239998 -20.221385 0.000000 -0.000000 -0.000000 0.000000 0.000001 -0.000001 -4.832661 -26.248437 -27.594389 20.718996 6.611640 -6.840317 -10.661505 -7.308560 28.523358 -0.000000 0.000000 0.000000 0.000000 -0.000000 0.000002 -3.154017 -1.193378 0.445833 -5.216541 -0.287078 0.641963 -5.213772 -0.331454 0.632408 -7.585991 -0.389580 -3.262332 -17.360480 -5.315514 3.480577 0.000003 0.000000 0.000001 0.000003 0.000000 0.000001 0.000003 0.000000 0.000000 0.000003 0.000000 0.000001 0.000003 0.000000 -0.000000 0.000003 0.000000 0.000001 0.000003 0.000000 -0.000000 0.000003 0.000000 0.000001 0.000003 0.000000 0.000001 2.134670 15.197050 -19.131266 -46.468608 21.226596 -36.468029 -182.761382 -155.473861 -174.589484 2.486715 3.118280 -4.129187 4.766486 -0.870671 -14.442466 15.732326 12.674832 8.828582 -0.000001 0.000001 -0.000000 -3.610954 -7.817591 -81.262661 0.005173 -4.388534 -67.459081 0.000000 0.000000 0.000007 -5.483669 2.419554 -86.651024 -0.068363 -4.897285 -76.605503 -0.000000 0.000000 0.000001 -4.480817 3.914141 -90.412519 -1.097245 -0.675672 -62.310723 -0.000002 0.000005 -0.000004 -8.868641 8.263647 -85.753872 -0.047913 -0.066882 -74.105647 -0.000002 -0.000002 -0.000003 0.000000 -0.000002 -0.000000 1.242232 -16.313920 13.458592 -14.148419 -26.467396 42.100367 -37.028617 5.256796 8.001914 1.372751 16.837084 -9.816838 24.918340 -21.323376 30.343047 9.041923 8.262093 -18.001804 0.000001 0.000004 -0.000003 -0.070696 -3.035222 61.424205 0.006472 4.395155 66.609186 -0.000002 0.000000 0.000000 -1.235388 -0.119478 68.274277 -0.077306 4.902845 84.501898 0.000001 0.000001 -0.000001 0.883159 -4.613432 79.192949 -0.717764 1.136488 73.255787 -0.000001 -0.000001 -0.000004 -3.944535 0.099985 86.764781 -0.029799 0.060130 54.415151 -0.000002 -0.000002 0.000004 -0.000001 -0.000002 -0.000001 0.000000 0.000001 0.000001 -0.000001 0.000001 0.000001 0.000000 0.000001 0.000001 0.000000 0.000001 0.000001 0.000000 0.000001 0.000001 -0.000001 0.000001 0.000001 0.000000 0.000001 0.000001 0.000000 0.000001 0.000001 0.000000 0.000001 0.000001 -0.000001 0.000001 0.000001 -0.000000 -0.000001 -0.000000 -0.000000 -0.000001 -0.000000 -0.000000 -0.000001 -0.000000 
-8.260939 64.525970 1.023027 -10.669405 -62.699566 -9.443054 -0.000000 0.000001 -0.000000 -33.610688 41.184156 45.322287 17.473140 -13.974226 2.308720 7.683641 0.233979 -20.237533 0.000000 -0.000000 -0.000000 -0.000001 0.000000 -0.000000 -4.679618 -26.221356 -27.576438 20.273057 6.558590 -6.781589 -10.386858 -7.191695 28.549395 -0.000000 0.000000 -0.000000 0.000000 0.000000 -0.000003 -3.265672 -1.232226 0.449486 -5.242479 -0.298355 0.642040 -5.239694 -0.343690 0.622784 -7.615716 -0.346757 -3.272543 -17.322085 -5.134656 3.262905 -0.000002 -0.000001 -0.000001 -0.000002 -0.000001 -0.000001 -0.000002 -0.000001 -0.000002 -0.000002 -0.000001 -0.000001 -0.000002 0.000001 -0.000000 -0.000002 -0.000001 -0.000001 -0.000002 0.000001 -0.000000 -0.000002 -0.000001 -0.000001 -0.000002 -0.000001 -0.000001 2.115389 15.281775 -18.970912 -46.464701 21.475785 -36.394315 -182.442631 -155.500690 -174.404373 2.488995 3.213827 -4.038410 4.766486 -0.870674 -14.442466 15.732323 12.674828 8.828583 -0.000001 -0.000000 -0.000001 -3.610953 -7.817589 -81.262661 0.005175 -4.388533 -67.459081 0.000000 0.000002 -0.000002 -5.483670 2.419552 -86.651024 -0.068359 -4.897283 -76.605503 -0.000002 -0.000000 0.000001 -4.480816 3.914146 -90.412519 -1.097245 -0.675670 -62.310723 -0.000003 0.000004 -0.000005 -8.868642 8.263650 -85.753872 -0.047915 -0.066880 -74.105647 0.000002 0.000000 0.000003 -0.000000 0.000000 -0.000000 1.241874 -16.607704 13.400703 -14.208322 -26.337775 42.141185 -37.360370 5.196664 8.030996 1.395139 16.940169 -9.912490 24.918333 -21.323378 30.343047 9.041925 8.262093 -18.001800 0.000000 -0.000001 0.000001 -0.070691 -3.035226 61.424205 0.006467 4.395156 66.609186 -0.000000 0.000002 -0.000001 -1.235389 -0.119481 68.274277 -0.077306 4.902840 84.501891 0.000000 0.000003 -0.000000 0.883156 -4.613437 79.192943 -0.717754 1.136483 73.255780 -0.000002 -0.000003 0.000000 -3.944538 0.099986 86.764781 -0.029798 0.060131 54.415147 -0.000003 0.000002 -0.000001 0.000003 0.000001 0.000001 -0.000001 0.000000 -0.000001 -0.000001 -0.000000 -0.000001 -0.000001 0.000000 -0.000001 -0.000001 0.000000 -0.000001 -0.000001 0.000000 -0.000001 -0.000001 -0.000000 -0.000001 -0.000001 0.000000 -0.000001 -0.000001 0.000000 -0.000001 -0.000001 0.000000 -0.000001 -0.000001 -0.000000 -0.000001 -0.000000 0.000001 -0.000000 -0.000000 0.000001 -0.000000 -0.000000 0.000001 -0.000000 
-8.226854 64.575928 1.067512 -10.747367 -62.819319 -9.502053 -0.000000 -0.000000 0.000000 -33.324647 41.323730 45.095235 17.228780 -13.787360 2.370634 7.744880 0.215182 -20.266196 0.000000 -0.000000 -0.000000 -0.000002 -0.000000 -0.000000 -4.457036 -26.306291 -27.548028 19.629930 6.572577 -6.723073 -10.017547 -7.050764 28.590711 0.000000 -0.000000 -0.000000 0.000000 0.000000 -0.000000 -3.320505 -1.252331 0.437381 -5.251125 -0.303193 0.645074 -5.248354 -0.348525 0.620684 -7.510235 -0.380838 -3.259159 -17.434295 -5.193290 3.158821 -0.000001 -0.000000 -0.000000 -0.000001 -0.000000 -0.000000 -0.000001 -0.000000 -0.000001 -0.000001 -0.000000 0.000000 -0.000001 -0.000000 0.000001 -0.000001 -0.000000 0.000000 -0.000001 -0.000000 0.000001 -0.000001 -0.000000 -0.000000 -0.000001 -0.000000 -0.000000 2.108573 15.406607 -18.867643 -46.511167 21.712371 -36.250409 -182.061192 -155.535838 -174.215313 2.500501 3.287115 -4.009297 4.766486 -0.870675 -14.442466 15.732320 12.674833 8.828585 -0.000003 0.000001 -0.000001 -3.610954 -7.817588 -81.262661 0.005171 -4.388536 -67.459081 0.000001 0.000003 -0.000001 -5.483669 2.419549 -86.651024 -0.068362 -4.897284 -76.605510 -0.000001 -0.000002 0.000000 -4.480819 3.914144 -90.412512 -1.097245 -0.675672 -62.310723 -0.000004 0.000004 -0.000000 -8.868643 8.263650 -85.753872 -0.047919 -0.066880 -74.105647 0.000003 -0.000001 0.000001 -0.000001 0.000001 -0.000000 1.248811 -16.830233 13.398590 -14.261987 -26.139528 42.262741 -37.281396 5.189028 8.031952 1.485862 17.017585 -10.474823 24.918337 -21.323376 30.343044 9.041918 8.262096 -18.001804 -0.000000 0.000002 0.000002 -0.070696 -3.035226 61.424205 0.006465 4.395156 66.609186 -0.000002 0.000001 -0.000005 -1.235392 -0.119484 68.274277 -0.077305 4.902844 84.501885 0.000003 0.000002 0.000001 0.883155 -4.613433 79.192949 -0.717761 1.136485 73.255787 -0.000001 -0.000003 -0.000002 -3.944541 0.099984 86.764781 -0.029799 0.060128 54.415151 0.000004 0.000001 -0.000003 0.000001 0.000000 -0.000002 -0.000001 -0.000002 -0.000000 -0.000002 -0.000000 -0.000000 -0.000001 -0.000002 -0.000000 -0.000001 -0.000002 -0.000000 -0.000001 -0.000002 -0.000000 -0.000002 -0.000000 -0.000000 -0.000001 -0.000002 -0.000000 -0.000001 -0.000002 -0.000000 -0.000001 -0.000002 -0.000000 -0.000002 -0.000000 -0.000000 -0.000000 -0.000000 0.000000 -0.000000 -0.000000 0.000000 -0.000000 -0.000000 0.000000 
